inDegrees=no
num_controls=7
num_derivatives=13
num_iterations=116
num_multipliers=7
num_parameters=0
num_slacks=7
num_states=26
objective=4.974673
objective_accelerations=0.568004
objective_balance=0.012014
objective_effort=0.151118
objective_height=4.170181
objective_ligament=0.073355
solver_duration=1273.793671
status=Solve_Succeeded
success=true
DataType=double
version=3
OpenSimVersion=4.4-2022-07-23-0e9fedc
endheader
time	/jointset/ground_pelvis/pelvis_tilt/value	/jointset/ground_pelvis/pelvis_tx/value	/jointset/ground_pelvis/pelvis_ty/value	/jointset/hip_l/hip_flexion_l/value	/jointset/hip_l/hip_adduction_l/value	/jointset/hip_l/hip_rotation_l/value	/jointset/back/lumbar_extension/value	/jointset/patellofemoral_l/patellar_flexion_l/value	/jointset/knee_l/knee_flexion_l/value	/jointset/knee_l/knee_adduction_l/value	/jointset/knee_l/knee_rotation_l/value	/jointset/ankle_l/ankle_angle_l/value	/jointset/subtalar_l/subtalar_angle_l/value	/jointset/ground_pelvis/pelvis_tilt/speed	/jointset/ground_pelvis/pelvis_tx/speed	/jointset/ground_pelvis/pelvis_ty/speed	/jointset/hip_l/hip_flexion_l/speed	/jointset/hip_l/hip_adduction_l/speed	/jointset/hip_l/hip_rotation_l/speed	/jointset/back/lumbar_extension/speed	/jointset/patellofemoral_l/patellar_flexion_l/speed	/jointset/knee_l/knee_flexion_l/speed	/jointset/knee_l/knee_adduction_l/speed	/jointset/knee_l/knee_rotation_l/speed	/jointset/ankle_l/ankle_angle_l/speed	/jointset/subtalar_l/subtalar_angle_l/speed	/forceset/tau_hip_flexion_l	/forceset/tau_hip_adduction_l	/forceset/tau_hip_rotation_l	/forceset/tau_knee_flexion_l	/forceset/tau_ankle_angle_l	/forceset/tau_subtalar_angle_l	/forceset/tau_lumbar_extension	lambda_cid13_p0	lambda_cid13_p1	lambda_cid13_p2	lambda_cid13_p3	lambda_cid13_p4	lambda_cid13_p5	lambda_cid14_p0	/jointset/ground_pelvis/pelvis_tilt/accel	/jointset/ground_pelvis/pelvis_tx/accel	/jointset/ground_pelvis/pelvis_ty/accel	/jointset/hip_l/hip_flexion_l/accel	/jointset/hip_l/hip_adduction_l/accel	/jointset/hip_l/hip_rotation_l/accel	/jointset/back/lumbar_extension/accel	/jointset/patellofemoral_l/patellar_flexion_l/accel	/jointset/knee_l/knee_flexion_l/accel	/jointset/knee_l/knee_adduction_l/accel	/jointset/knee_l/knee_rotation_l/accel	/jointset/ankle_l/ankle_angle_l/accel	/jointset/subtalar_l/subtalar_angle_l/accel	gamma_cid13_p0	gamma_cid13_p1	gamma_cid13_p2	gamma_cid13_p3	gamma_cid13_p4	gamma_cid13_p5	gamma_cid14_p0
1.5	-0.2879944501241029	0.06895859942661835	0.8114316719104719	0.8780357565970901	-0.3567227928240646	-0.07716260691907011	-0.3155248157754715	0.7473435967516252	0.7473435967516386	-0.03776293874231499	-0.1711473259518462	0.2713181704081174	0.1557895346906777	0.3547728333772001	0.2352314961217548	0.4064087032728497	-1.968812465137923	0.03293045428245664	-0.563800188083362	0.6183786581285798	-2.013844048197327	-2.013844048197413	-0.2391925575433039	0.04176106439517251	-0.5514858588580612	-0.1745140733852301	-0.1088064946422598	0.02873501821529972	0.001617693118010785	-0.1342008385478549	-0.03982328915653208	0.01753356062338867	0.1113367007371621	-35.82230649196329	-3.827027307396563	3.166937216257851	-1.893770097187833	-433.7821607613047	-66.41443088535982	-13.09643827766739	0.3710233585261846	0.4439880397288509	-0.6462003458260019	-1.020624937624367	0.3087979072397614	-0.3281423810770985	1.321929416961176	-1.03494869817971	-1.034948698179708	-0.1707205857729344	0.3309090852994894	-0.4182476030769504	0.4084218216889898	3.706082932595436e-07	1.127162180318152e-06	-4.076995335358644e-06	-2.012169956750405e-08	8.803257299225734e-07	2.096416072940492e-06	5.642792504234202e-07
1.51	-0.2844281653584664	0.07133285702058817	0.8154626844222874	0.8582977696430811	-0.3563802687280553	-0.08281406709998027	-0.3092767106934137	0.7271551331461207	0.7271551331461055	-0.04016923491910332	-0.1707140978760534	0.2657823527082955	0.1540617442386212	0.3584178375223266	0.2395868866717071	0.399707855506447	-1.978517001702467	0.03555402161734662	-0.5663177450966664	0.6311354751949373	-2.02357909269906	-2.023579092699028	-0.242151312379565	0.04496743029387518	-0.5555968821258823	-0.1710487602741871	-0.1049474004654275	0.02839700093239474	0.002406032736778069	-0.1318210030252822	-0.03854715187398765	0.01558948799684475	0.1080405995326376	-35.43748890937328	-3.056800874809523	3.051799815289917	-1.88504729521858	-431.2551811978869	-65.20724674099387	-13.90799027606245	0.351332587992205	0.4263817029514076	-0.6947526977416087	-0.9051306955972515	0.2364020488845393	-0.1868216426850932	1.236525388172601	-0.902467321813295	-0.9024673217956188	-0.3709321090228139	0.3273180037043141	-0.3953086956778996	0.3149136974522209	3.228040599598468e-07	2.023448398198753e-06	-3.774069510400473e-06	1.170412664754918e-07	8.465559352057409e-07	2.486699795771747e-06	5.945430852689982e-07
1.52	-0.2808274118222878	0.07374968194812205	0.8194241433153	0.8384707847874689	-0.3560120557782453	-0.08848535470727389	-0.3029042439333552	0.7068773820964424	0.7068773820964691	-0.0426076144793887	-0.1702464426090376	0.2602078689743858	0.1523684724460029	0.3616665874869255	0.2437449628345681	0.3924979795122787	-1.986612045456117	0.03806822504308867	-0.5677656733590977	0.6432509937292862	-2.031701537026522	-2.031701537026373	-0.2456092342746407	0.0486465026545305	-0.5592190656754317	-0.1676103414975326	-0.1010883062886848	0.02805898364943009	0.003194372356138657	-0.1294411675027355	-0.03727101459146218	0.01364541537020763	0.1047444983280399	-35.04651425467507	-2.294671094916	2.945973319888715	-1.918143837470175	-428.6782612668145	-64.08641344884637	-14.7188827010661	0.2917725224205499	0.4045251623106834	-0.7480059913791235	-0.6987263754455668	0.2869251254101158	-0.1142166309024712	1.193669710559449	-0.7124286633257131	-0.7124286633256991	-0.2705539975359213	0.4254503776899943	-0.3204796594225295	0.4030429548113119	1.56416339753347e-07	3.020450151250799e-06	-2.328087507019824e-06	3.106554697064115e-07	5.792866314538923e-07	2.383885732446208e-06	5.007031355623856e-07
1.53	-0.2771964063623178	0.07620679018080133	0.823310940243186	0.818572232833363	-0.355617321912322	-0.09417381683822673	-0.2964134046791285	0.6865274604903506	0.6865274604903753	-0.04507444554974248	-0.1697438297280039	0.2546001809933343	0.1507123067301238	0.3644888925273421	0.2476154204827083	0.384782316145508	-1.992802303691306	0.04087059493107429	-0.5697925508207977	0.6548014800012426	-2.03798444032114	-2.037984440321075	-0.2477925849085292	0.05191484841206312	-0.5622521389306369	-0.1636211060033085	-0.09798608493590028	0.0265912005900351	0.003922207798521475	-0.1256308861114534	-0.03882323180377061	0.01296285590351673	0.1019030850495815	-35.4744292003164	-2.118982268101869	3.141467750465258	-1.226176848488049	-426.266767711909	-64.11828993268324	-15.52838400967973	0.2705951991530852	0.369256585796356	-0.7952523926462013	-0.5348035475968003	0.2749270891086306	-0.2266837172703817	1.118431518182096	-0.5415004168637151	-0.5415004168763197	-0.1967587238002336	0.2837194227626056	-0.2846116951410342	0.3961704135693119	-1.359663352916296e-07	4.124462160422505e-06	3.323916859346956e-07	5.642491124494995e-07	6.392409935234188e-08	1.757155271329079e-06	2.750029147690719e-07
1.54	-0.2735385507110908	0.07870079309390803	0.8271181993607402	0.7986206526968859	-0.3551949575137991	-0.09987849982648844	-0.2898105218756512	0.6661236540004591	0.6661236540004594	-0.04756401675194276	-0.1692072948397899	0.2489641841724161	0.1490958946825549	0.3670366257398074	0.2511238989200521	0.3765904174459324	-1.997217681928142	0.04359433156369931	-0.5710098448211617	0.6656597035799415	-2.042478513789112	-2.042478513789131	-0.2501572606418174	0.05543090408870675	-0.5648808336487025	-0.1596596078354286	-0.09488386358317963	0.02512341753062592	0.004650043240825853	-0.1218206047201831	-0.04037544901608064	0.01228029643680817	0.0990616717710647	-35.90392239091594	-1.941715242821633	3.335223424174773	-0.5365114751643828	-423.8850439914755	-64.14647393824021	-16.32787828116723	0.2368581568301836	0.3321293201514767	-0.8432530579400612	-0.3437503757749311	0.2711984743379727	0.04770006136472737	1.055217171907863	-0.3546626979963707	-0.3546626979963695	-0.3068190174159227	0.4749923615121707	-0.2396039519945291	0.3974954895424797	-2.587703284136793e-07	4.678572132230672e-06	1.380801429487577e-06	6.806840750142357e-07	-1.440545567135947e-07	1.557814810496244e-06	1.95308461332888e-07
